<mxfile host="app.diagrams.net" modified="2023-06-12T00:47:41.396Z" agent="Mozilla/5.0 (Windows NT 10.0; Win64; x64) AppleWebKit/537.36 (KHTML, like Gecko) Chrome/114.0.0.0 Safari/537.36" etag="Mru-YoqA7Zoli_SB6RC3" version="21.3.8" type="device">
  <diagram id="3f1_XftPDN3f5cRCWgj8" name="Page-1">
    <mxGraphModel dx="910" dy="356" grid="0" gridSize="10" guides="1" tooltips="1" connect="1" arrows="1" fold="1" page="1" pageScale="1" pageWidth="850" pageHeight="1100" math="0" shadow="0">
      <root>
        <mxCell id="0" />
        <mxCell id="1" parent="0" />
        <mxCell id="3sCH-hZphIqxRDtHM8D5-2" value="" style="ellipse;whiteSpace=wrap;html=1;" parent="1" vertex="1">
          <mxGeometry x="226" y="56" width="40" height="40" as="geometry" />
        </mxCell>
        <mxCell id="3sCH-hZphIqxRDtHM8D5-20" value="" style="edgeStyle=orthogonalEdgeStyle;rounded=0;orthogonalLoop=1;jettySize=auto;html=1;exitX=1;exitY=0.5;exitDx=0;exitDy=0;entryX=0;entryY=0.5;entryDx=0;entryDy=0;" parent="1" source="3sCH-hZphIqxRDtHM8D5-5" target="3sCH-hZphIqxRDtHM8D5-6" edge="1">
          <mxGeometry x="-0.2" y="10" relative="1" as="geometry">
            <mxPoint as="offset" />
          </mxGeometry>
        </mxCell>
        <mxCell id="3sCH-hZphIqxRDtHM8D5-5" value="" style="rounded=0;whiteSpace=wrap;html=1;" parent="1" vertex="1">
          <mxGeometry x="406" y="46" width="40" height="60" as="geometry" />
        </mxCell>
        <mxCell id="3sCH-hZphIqxRDtHM8D5-21" style="edgeStyle=orthogonalEdgeStyle;rounded=0;orthogonalLoop=1;jettySize=auto;html=1;exitX=1;exitY=0.5;exitDx=0;exitDy=0;entryX=0;entryY=0.5;entryDx=0;entryDy=0;" parent="1" source="3sCH-hZphIqxRDtHM8D5-6" target="3sCH-hZphIqxRDtHM8D5-7" edge="1">
          <mxGeometry relative="1" as="geometry" />
        </mxCell>
        <mxCell id="3sCH-hZphIqxRDtHM8D5-6" value="" style="rounded=0;whiteSpace=wrap;html=1;" parent="1" vertex="1">
          <mxGeometry x="496" y="56" width="40" height="40" as="geometry" />
        </mxCell>
        <mxCell id="3sCH-hZphIqxRDtHM8D5-38" style="edgeStyle=orthogonalEdgeStyle;rounded=0;orthogonalLoop=1;jettySize=auto;html=1;exitX=0.5;exitY=1;exitDx=0;exitDy=0;entryX=0.5;entryY=0;entryDx=0;entryDy=0;" parent="1" source="3sCH-hZphIqxRDtHM8D5-7" target="3sCH-hZphIqxRDtHM8D5-31" edge="1">
          <mxGeometry relative="1" as="geometry" />
        </mxCell>
        <mxCell id="3sCH-hZphIqxRDtHM8D5-7" value="" style="rounded=0;whiteSpace=wrap;html=1;" parent="1" vertex="1">
          <mxGeometry x="586" y="56" width="40" height="40" as="geometry" />
        </mxCell>
        <mxCell id="3sCH-hZphIqxRDtHM8D5-19" style="edgeStyle=orthogonalEdgeStyle;rounded=0;orthogonalLoop=1;jettySize=auto;html=1;exitX=1;exitY=0.5;exitDx=0;exitDy=0;entryX=0;entryY=0.5;entryDx=0;entryDy=0;" parent="1" source="3sCH-hZphIqxRDtHM8D5-9" target="3sCH-hZphIqxRDtHM8D5-5" edge="1">
          <mxGeometry relative="1" as="geometry" />
        </mxCell>
        <mxCell id="3sCH-hZphIqxRDtHM8D5-9" value="" style="rounded=0;whiteSpace=wrap;html=1;" parent="1" vertex="1">
          <mxGeometry x="316" y="46" width="40" height="60" as="geometry" />
        </mxCell>
        <mxCell id="3sCH-hZphIqxRDtHM8D5-22" style="edgeStyle=orthogonalEdgeStyle;rounded=0;orthogonalLoop=1;jettySize=auto;html=1;entryX=1;entryY=0.5;entryDx=0;entryDy=0;" parent="1" target="3sCH-hZphIqxRDtHM8D5-15" edge="1">
          <mxGeometry relative="1" as="geometry">
            <mxPoint x="446" y="76" as="targetPoint" />
            <mxPoint x="446" y="76" as="sourcePoint" />
            <Array as="points">
              <mxPoint x="466" y="76" />
              <mxPoint x="466" y="146" />
            </Array>
          </mxGeometry>
        </mxCell>
        <mxCell id="3sCH-hZphIqxRDtHM8D5-23" style="edgeStyle=orthogonalEdgeStyle;rounded=0;orthogonalLoop=1;jettySize=auto;html=1;exitX=0;exitY=0.5;exitDx=0;exitDy=0;entryX=0.5;entryY=1;entryDx=0;entryDy=0;" parent="1" source="3sCH-hZphIqxRDtHM8D5-15" target="3sCH-hZphIqxRDtHM8D5-2" edge="1">
          <mxGeometry relative="1" as="geometry" />
        </mxCell>
        <mxCell id="3sCH-hZphIqxRDtHM8D5-15" value="" style="rounded=0;whiteSpace=wrap;html=1;" parent="1" vertex="1">
          <mxGeometry x="316" y="126" width="40" height="40" as="geometry" />
        </mxCell>
        <mxCell id="3sCH-hZphIqxRDtHM8D5-18" value="" style="endArrow=classic;html=1;rounded=0;entryX=0;entryY=0.5;entryDx=0;entryDy=0;" parent="1" target="3sCH-hZphIqxRDtHM8D5-9" edge="1">
          <mxGeometry width="50" height="50" relative="1" as="geometry">
            <mxPoint x="266" y="76" as="sourcePoint" />
            <mxPoint x="316" y="26" as="targetPoint" />
          </mxGeometry>
        </mxCell>
        <mxCell id="3sCH-hZphIqxRDtHM8D5-24" value="" style="endArrow=classic;html=1;rounded=0;entryX=0;entryY=0.5;entryDx=0;entryDy=0;" parent="1" target="3sCH-hZphIqxRDtHM8D5-2" edge="1">
          <mxGeometry y="10" width="50" height="50" relative="1" as="geometry">
            <mxPoint x="186" y="76" as="sourcePoint" />
            <mxPoint x="236" y="26" as="targetPoint" />
            <mxPoint as="offset" />
          </mxGeometry>
        </mxCell>
        <mxCell id="3sCH-hZphIqxRDtHM8D5-25" value="" style="ellipse;whiteSpace=wrap;html=1;" parent="1" vertex="1">
          <mxGeometry x="226" y="196" width="40" height="40" as="geometry" />
        </mxCell>
        <mxCell id="3sCH-hZphIqxRDtHM8D5-27" style="edgeStyle=orthogonalEdgeStyle;rounded=0;orthogonalLoop=1;jettySize=auto;html=1;exitX=1;exitY=0.5;exitDx=0;exitDy=0;entryX=0;entryY=0.5;entryDx=0;entryDy=0;" parent="1" source="3sCH-hZphIqxRDtHM8D5-28" target="3sCH-hZphIqxRDtHM8D5-30" edge="1">
          <mxGeometry relative="1" as="geometry" />
        </mxCell>
        <mxCell id="3sCH-hZphIqxRDtHM8D5-28" value="" style="rounded=0;whiteSpace=wrap;html=1;" parent="1" vertex="1">
          <mxGeometry x="406" y="186" width="40" height="60" as="geometry" />
        </mxCell>
        <mxCell id="3sCH-hZphIqxRDtHM8D5-48" style="edgeStyle=orthogonalEdgeStyle;rounded=0;orthogonalLoop=1;jettySize=auto;html=1;exitX=1;exitY=0.5;exitDx=0;exitDy=0;" parent="1" source="3sCH-hZphIqxRDtHM8D5-30" edge="1">
          <mxGeometry relative="1" as="geometry">
            <mxPoint x="656" y="216" as="targetPoint" />
          </mxGeometry>
        </mxCell>
        <mxCell id="3sCH-hZphIqxRDtHM8D5-30" value="" style="rounded=0;whiteSpace=wrap;html=1;" parent="1" vertex="1">
          <mxGeometry x="496" y="196" width="40" height="40" as="geometry" />
        </mxCell>
        <mxCell id="3sCH-hZphIqxRDtHM8D5-39" style="edgeStyle=orthogonalEdgeStyle;rounded=0;orthogonalLoop=1;jettySize=auto;html=1;exitX=0;exitY=0.5;exitDx=0;exitDy=0;entryX=0.5;entryY=0;entryDx=0;entryDy=0;" parent="1" source="3sCH-hZphIqxRDtHM8D5-31" target="3sCH-hZphIqxRDtHM8D5-25" edge="1">
          <mxGeometry relative="1" as="geometry">
            <mxPoint x="246" y="176" as="targetPoint" />
            <Array as="points">
              <mxPoint x="516" y="156" />
              <mxPoint x="516" y="176" />
              <mxPoint x="246" y="176" />
            </Array>
          </mxGeometry>
        </mxCell>
        <mxCell id="3sCH-hZphIqxRDtHM8D5-31" value="" style="rounded=0;whiteSpace=wrap;html=1;" parent="1" vertex="1">
          <mxGeometry x="586" y="136" width="40" height="40" as="geometry" />
        </mxCell>
        <mxCell id="3sCH-hZphIqxRDtHM8D5-32" style="edgeStyle=orthogonalEdgeStyle;rounded=0;orthogonalLoop=1;jettySize=auto;html=1;exitX=1;exitY=0.5;exitDx=0;exitDy=0;entryX=0;entryY=0.5;entryDx=0;entryDy=0;" parent="1" source="3sCH-hZphIqxRDtHM8D5-33" target="3sCH-hZphIqxRDtHM8D5-28" edge="1">
          <mxGeometry relative="1" as="geometry" />
        </mxCell>
        <mxCell id="3sCH-hZphIqxRDtHM8D5-33" value="" style="rounded=0;whiteSpace=wrap;html=1;" parent="1" vertex="1">
          <mxGeometry x="316" y="186" width="40" height="60" as="geometry" />
        </mxCell>
        <mxCell id="3sCH-hZphIqxRDtHM8D5-34" style="edgeStyle=orthogonalEdgeStyle;rounded=0;orthogonalLoop=1;jettySize=auto;html=1;entryX=1;entryY=0.5;entryDx=0;entryDy=0;" parent="1" target="3sCH-hZphIqxRDtHM8D5-36" edge="1">
          <mxGeometry relative="1" as="geometry">
            <mxPoint x="446" y="216" as="targetPoint" />
            <mxPoint x="446" y="216" as="sourcePoint" />
            <Array as="points">
              <mxPoint x="466" y="216" />
              <mxPoint x="466" y="286" />
            </Array>
          </mxGeometry>
        </mxCell>
        <mxCell id="3sCH-hZphIqxRDtHM8D5-36" value="" style="rounded=0;whiteSpace=wrap;html=1;" parent="1" vertex="1">
          <mxGeometry x="316" y="266" width="40" height="40" as="geometry" />
        </mxCell>
        <mxCell id="3sCH-hZphIqxRDtHM8D5-37" value="" style="endArrow=classic;html=1;rounded=0;entryX=0;entryY=0.5;entryDx=0;entryDy=0;" parent="1" target="3sCH-hZphIqxRDtHM8D5-33" edge="1">
          <mxGeometry width="50" height="50" relative="1" as="geometry">
            <mxPoint x="266" y="216" as="sourcePoint" />
            <mxPoint x="316" y="166" as="targetPoint" />
          </mxGeometry>
        </mxCell>
        <mxCell id="3sCH-hZphIqxRDtHM8D5-42" value="" style="endArrow=classic;html=1;rounded=0;" parent="1" target="3sCH-hZphIqxRDtHM8D5-25" edge="1">
          <mxGeometry width="50" height="50" relative="1" as="geometry">
            <mxPoint x="316" y="286" as="sourcePoint" />
            <mxPoint x="366" y="236" as="targetPoint" />
            <Array as="points">
              <mxPoint x="246" y="286" />
            </Array>
          </mxGeometry>
        </mxCell>
        <mxCell id="3sCH-hZphIqxRDtHM8D5-43" value="" style="endArrow=classic;html=1;rounded=0;entryX=0;entryY=0.5;entryDx=0;entryDy=0;" parent="1" target="3sCH-hZphIqxRDtHM8D5-25" edge="1">
          <mxGeometry y="10" width="50" height="50" relative="1" as="geometry">
            <mxPoint x="186" y="216" as="sourcePoint" />
            <mxPoint x="236" y="176" as="targetPoint" />
            <mxPoint as="offset" />
          </mxGeometry>
        </mxCell>
        <mxCell id="3sCH-hZphIqxRDtHM8D5-47" value="" style="endArrow=classic;html=1;rounded=0;entryX=0.5;entryY=1;entryDx=0;entryDy=0;" parent="1" target="3sCH-hZphIqxRDtHM8D5-31" edge="1">
          <mxGeometry width="50" height="50" relative="1" as="geometry">
            <mxPoint x="606" y="216" as="sourcePoint" />
            <mxPoint x="656" y="166" as="targetPoint" />
            <Array as="points">
              <mxPoint x="606" y="206" />
            </Array>
          </mxGeometry>
        </mxCell>
        <mxCell id="3sCH-hZphIqxRDtHM8D5-49" value="" style="ellipse;whiteSpace=wrap;html=1;" parent="1" vertex="1">
          <mxGeometry x="88" y="346" width="40" height="40" as="geometry" />
        </mxCell>
        <mxCell id="3sCH-hZphIqxRDtHM8D5-50" value="" style="edgeStyle=orthogonalEdgeStyle;rounded=0;orthogonalLoop=1;jettySize=auto;html=1;exitX=1;exitY=0.5;exitDx=0;exitDy=0;entryX=0;entryY=0.5;entryDx=0;entryDy=0;" parent="1" source="3sCH-hZphIqxRDtHM8D5-51" edge="1">
          <mxGeometry x="-0.2" y="10" relative="1" as="geometry">
            <mxPoint as="offset" />
            <mxPoint x="328" y="366" as="targetPoint" />
          </mxGeometry>
        </mxCell>
        <mxCell id="3sCH-hZphIqxRDtHM8D5-51" value="" style="rounded=0;whiteSpace=wrap;html=1;" parent="1" vertex="1">
          <mxGeometry x="248" y="336" width="40" height="60" as="geometry" />
        </mxCell>
        <mxCell id="JEoIlfaAiZ4bA9MLYF1h-10" value="" style="edgeStyle=orthogonalEdgeStyle;rounded=0;orthogonalLoop=1;jettySize=auto;html=1;" edge="1" parent="1" source="3sCH-hZphIqxRDtHM8D5-55" target="JEoIlfaAiZ4bA9MLYF1h-9">
          <mxGeometry relative="1" as="geometry" />
        </mxCell>
        <mxCell id="3sCH-hZphIqxRDtHM8D5-55" value="" style="rounded=0;whiteSpace=wrap;html=1;" parent="1" vertex="1">
          <mxGeometry x="327" y="346" width="40" height="40" as="geometry" />
        </mxCell>
        <mxCell id="3sCH-hZphIqxRDtHM8D5-56" style="edgeStyle=orthogonalEdgeStyle;rounded=0;orthogonalLoop=1;jettySize=auto;html=1;exitX=1;exitY=0.5;exitDx=0;exitDy=0;entryX=0;entryY=0.5;entryDx=0;entryDy=0;" parent="1" source="3sCH-hZphIqxRDtHM8D5-57" target="3sCH-hZphIqxRDtHM8D5-51" edge="1">
          <mxGeometry relative="1" as="geometry" />
        </mxCell>
        <mxCell id="3sCH-hZphIqxRDtHM8D5-57" value="" style="rounded=0;whiteSpace=wrap;html=1;" parent="1" vertex="1">
          <mxGeometry x="168" y="336" width="40" height="60" as="geometry" />
        </mxCell>
        <mxCell id="3sCH-hZphIqxRDtHM8D5-58" style="edgeStyle=orthogonalEdgeStyle;rounded=0;orthogonalLoop=1;jettySize=auto;html=1;entryX=1;entryY=0.5;entryDx=0;entryDy=0;" parent="1" target="3sCH-hZphIqxRDtHM8D5-60" edge="1">
          <mxGeometry relative="1" as="geometry">
            <mxPoint x="308" y="366" as="targetPoint" />
            <mxPoint x="308.0000000000001" y="366" as="sourcePoint" />
            <Array as="points">
              <mxPoint x="308" y="436" />
            </Array>
          </mxGeometry>
        </mxCell>
        <mxCell id="3sCH-hZphIqxRDtHM8D5-59" style="edgeStyle=orthogonalEdgeStyle;rounded=0;orthogonalLoop=1;jettySize=auto;html=1;exitX=0;exitY=0.5;exitDx=0;exitDy=0;entryX=0.5;entryY=1;entryDx=0;entryDy=0;" parent="1" source="3sCH-hZphIqxRDtHM8D5-60" target="3sCH-hZphIqxRDtHM8D5-49" edge="1">
          <mxGeometry relative="1" as="geometry" />
        </mxCell>
        <mxCell id="3sCH-hZphIqxRDtHM8D5-60" value="" style="rounded=0;whiteSpace=wrap;html=1;" parent="1" vertex="1">
          <mxGeometry x="168" y="416" width="40" height="40" as="geometry" />
        </mxCell>
        <mxCell id="3sCH-hZphIqxRDtHM8D5-61" value="" style="endArrow=classic;html=1;rounded=0;entryX=0;entryY=0.5;entryDx=0;entryDy=0;" parent="1" target="3sCH-hZphIqxRDtHM8D5-57" edge="1">
          <mxGeometry width="50" height="50" relative="1" as="geometry">
            <mxPoint x="128.0000000000001" y="366" as="sourcePoint" />
            <mxPoint x="178" y="316" as="targetPoint" />
          </mxGeometry>
        </mxCell>
        <mxCell id="3sCH-hZphIqxRDtHM8D5-62" value="" style="endArrow=classic;html=1;rounded=0;entryX=0;entryY=0.5;entryDx=0;entryDy=0;" parent="1" target="3sCH-hZphIqxRDtHM8D5-49" edge="1">
          <mxGeometry y="10" width="50" height="50" relative="1" as="geometry">
            <mxPoint x="48" y="366" as="sourcePoint" />
            <mxPoint x="98" y="316" as="targetPoint" />
            <mxPoint as="offset" />
          </mxGeometry>
        </mxCell>
        <mxCell id="3sCH-hZphIqxRDtHM8D5-63" value="" style="ellipse;whiteSpace=wrap;html=1;" parent="1" vertex="1">
          <mxGeometry x="468" y="346" width="40" height="40" as="geometry" />
        </mxCell>
        <mxCell id="3sCH-hZphIqxRDtHM8D5-64" style="edgeStyle=orthogonalEdgeStyle;rounded=0;orthogonalLoop=1;jettySize=auto;html=1;exitX=1;exitY=0.5;exitDx=0;exitDy=0;entryX=0;entryY=0.5;entryDx=0;entryDy=0;" parent="1" source="3sCH-hZphIqxRDtHM8D5-65" target="3sCH-hZphIqxRDtHM8D5-67" edge="1">
          <mxGeometry relative="1" as="geometry" />
        </mxCell>
        <mxCell id="3sCH-hZphIqxRDtHM8D5-65" value="" style="rounded=0;whiteSpace=wrap;html=1;" parent="1" vertex="1">
          <mxGeometry x="628" y="336" width="40" height="60" as="geometry" />
        </mxCell>
        <mxCell id="3sCH-hZphIqxRDtHM8D5-66" style="edgeStyle=orthogonalEdgeStyle;rounded=0;orthogonalLoop=1;jettySize=auto;html=1;exitX=1;exitY=0.5;exitDx=0;exitDy=0;" parent="1" source="3sCH-hZphIqxRDtHM8D5-67" edge="1">
          <mxGeometry relative="1" as="geometry">
            <mxPoint x="798" y="366" as="targetPoint" />
          </mxGeometry>
        </mxCell>
        <mxCell id="3sCH-hZphIqxRDtHM8D5-67" value="" style="rounded=0;whiteSpace=wrap;html=1;" parent="1" vertex="1">
          <mxGeometry x="708" y="336" width="40" height="60" as="geometry" />
        </mxCell>
        <mxCell id="3sCH-hZphIqxRDtHM8D5-70" style="edgeStyle=orthogonalEdgeStyle;rounded=0;orthogonalLoop=1;jettySize=auto;html=1;exitX=1;exitY=0.5;exitDx=0;exitDy=0;entryX=0;entryY=0.5;entryDx=0;entryDy=0;" parent="1" source="3sCH-hZphIqxRDtHM8D5-71" target="3sCH-hZphIqxRDtHM8D5-65" edge="1">
          <mxGeometry relative="1" as="geometry" />
        </mxCell>
        <mxCell id="3sCH-hZphIqxRDtHM8D5-71" value="" style="rounded=0;whiteSpace=wrap;html=1;" parent="1" vertex="1">
          <mxGeometry x="548" y="336" width="40" height="60" as="geometry" />
        </mxCell>
        <mxCell id="3sCH-hZphIqxRDtHM8D5-72" style="edgeStyle=orthogonalEdgeStyle;rounded=0;orthogonalLoop=1;jettySize=auto;html=1;entryX=1;entryY=0.5;entryDx=0;entryDy=0;" parent="1" target="3sCH-hZphIqxRDtHM8D5-73" edge="1">
          <mxGeometry relative="1" as="geometry">
            <mxPoint x="738" y="366" as="targetPoint" />
            <mxPoint x="708" y="366" as="sourcePoint" />
            <Array as="points">
              <mxPoint x="688" y="366" />
              <mxPoint x="688" y="436" />
            </Array>
          </mxGeometry>
        </mxCell>
        <mxCell id="3sCH-hZphIqxRDtHM8D5-73" value="" style="rounded=0;whiteSpace=wrap;html=1;" parent="1" vertex="1">
          <mxGeometry x="548" y="416" width="40" height="40" as="geometry" />
        </mxCell>
        <mxCell id="3sCH-hZphIqxRDtHM8D5-74" value="" style="endArrow=classic;html=1;rounded=0;entryX=0;entryY=0.5;entryDx=0;entryDy=0;" parent="1" target="3sCH-hZphIqxRDtHM8D5-71" edge="1">
          <mxGeometry width="50" height="50" relative="1" as="geometry">
            <mxPoint x="508" y="366" as="sourcePoint" />
            <mxPoint x="548" y="316" as="targetPoint" />
          </mxGeometry>
        </mxCell>
        <mxCell id="3sCH-hZphIqxRDtHM8D5-75" value="" style="endArrow=classic;html=1;rounded=0;entryX=0.5;entryY=1;entryDx=0;entryDy=0;" parent="1" target="3sCH-hZphIqxRDtHM8D5-63" edge="1">
          <mxGeometry width="50" height="50" relative="1" as="geometry">
            <mxPoint x="548" y="436" as="sourcePoint" />
            <mxPoint x="658" y="386" as="targetPoint" />
            <Array as="points">
              <mxPoint x="488" y="436" />
            </Array>
          </mxGeometry>
        </mxCell>
        <mxCell id="JEoIlfaAiZ4bA9MLYF1h-7" style="edgeStyle=orthogonalEdgeStyle;rounded=0;orthogonalLoop=1;jettySize=auto;html=1;entryX=0.5;entryY=1;entryDx=0;entryDy=0;" edge="1" parent="1" source="JEoIlfaAiZ4bA9MLYF1h-6" target="JEoIlfaAiZ4bA9MLYF1h-9">
          <mxGeometry relative="1" as="geometry">
            <mxPoint x="485" y="386" as="targetPoint" />
          </mxGeometry>
        </mxCell>
        <mxCell id="JEoIlfaAiZ4bA9MLYF1h-6" value="" style="rounded=0;whiteSpace=wrap;html=1;" vertex="1" parent="1">
          <mxGeometry x="628" y="456" width="40" height="40" as="geometry" />
        </mxCell>
        <mxCell id="JEoIlfaAiZ4bA9MLYF1h-8" value="" style="endArrow=classic;html=1;rounded=0;entryX=1;entryY=0.5;entryDx=0;entryDy=0;" edge="1" parent="1" target="JEoIlfaAiZ4bA9MLYF1h-6">
          <mxGeometry width="50" height="50" relative="1" as="geometry">
            <mxPoint x="768" y="366" as="sourcePoint" />
            <mxPoint x="818" y="316" as="targetPoint" />
            <Array as="points">
              <mxPoint x="768" y="446" />
              <mxPoint x="768" y="476" />
            </Array>
          </mxGeometry>
        </mxCell>
        <mxCell id="JEoIlfaAiZ4bA9MLYF1h-11" value="" style="edgeStyle=orthogonalEdgeStyle;rounded=0;orthogonalLoop=1;jettySize=auto;html=1;entryX=0;entryY=0.5;entryDx=0;entryDy=0;" edge="1" parent="1" source="JEoIlfaAiZ4bA9MLYF1h-9" target="3sCH-hZphIqxRDtHM8D5-63">
          <mxGeometry relative="1" as="geometry" />
        </mxCell>
        <mxCell id="JEoIlfaAiZ4bA9MLYF1h-9" value="" style="ellipse;whiteSpace=wrap;html=1;" vertex="1" parent="1">
          <mxGeometry x="398" y="346" width="40" height="40" as="geometry" />
        </mxCell>
        <mxCell id="JEoIlfaAiZ4bA9MLYF1h-14" value="" style="edgeStyle=orthogonalEdgeStyle;rounded=0;orthogonalLoop=1;jettySize=auto;html=1;exitX=1;exitY=0.5;exitDx=0;exitDy=0;entryX=0;entryY=0.5;entryDx=0;entryDy=0;" edge="1" parent="1" source="JEoIlfaAiZ4bA9MLYF1h-15">
          <mxGeometry x="-0.2" y="10" relative="1" as="geometry">
            <mxPoint as="offset" />
            <mxPoint x="200" y="560" as="targetPoint" />
          </mxGeometry>
        </mxCell>
        <mxCell id="JEoIlfaAiZ4bA9MLYF1h-15" value="" style="rounded=0;whiteSpace=wrap;html=1;" vertex="1" parent="1">
          <mxGeometry x="120" y="540" width="40" height="40" as="geometry" />
        </mxCell>
        <mxCell id="JEoIlfaAiZ4bA9MLYF1h-16" value="" style="edgeStyle=orthogonalEdgeStyle;rounded=0;orthogonalLoop=1;jettySize=auto;html=1;" edge="1" parent="1" source="JEoIlfaAiZ4bA9MLYF1h-17" target="JEoIlfaAiZ4bA9MLYF1h-40">
          <mxGeometry relative="1" as="geometry" />
        </mxCell>
        <mxCell id="JEoIlfaAiZ4bA9MLYF1h-17" value="" style="rounded=0;whiteSpace=wrap;html=1;" vertex="1" parent="1">
          <mxGeometry x="199" y="540" width="40" height="40" as="geometry" />
        </mxCell>
        <mxCell id="JEoIlfaAiZ4bA9MLYF1h-18" style="edgeStyle=orthogonalEdgeStyle;rounded=0;orthogonalLoop=1;jettySize=auto;html=1;exitX=1;exitY=0.5;exitDx=0;exitDy=0;entryX=0;entryY=0.5;entryDx=0;entryDy=0;" edge="1" parent="1" target="JEoIlfaAiZ4bA9MLYF1h-15">
          <mxGeometry relative="1" as="geometry">
            <mxPoint x="80" y="560" as="sourcePoint" />
          </mxGeometry>
        </mxCell>
        <mxCell id="JEoIlfaAiZ4bA9MLYF1h-28" style="edgeStyle=orthogonalEdgeStyle;rounded=0;orthogonalLoop=1;jettySize=auto;html=1;exitX=1;exitY=0.5;exitDx=0;exitDy=0;" edge="1" parent="1" source="JEoIlfaAiZ4bA9MLYF1h-29">
          <mxGeometry relative="1" as="geometry">
            <mxPoint x="513" y="560" as="targetPoint" />
          </mxGeometry>
        </mxCell>
        <mxCell id="JEoIlfaAiZ4bA9MLYF1h-29" value="" style="rounded=0;whiteSpace=wrap;html=1;" vertex="1" parent="1">
          <mxGeometry x="419" y="530" width="40" height="60" as="geometry" />
        </mxCell>
        <mxCell id="JEoIlfaAiZ4bA9MLYF1h-42" value="" style="edgeStyle=orthogonalEdgeStyle;rounded=0;orthogonalLoop=1;jettySize=auto;html=1;" edge="1" parent="1" source="JEoIlfaAiZ4bA9MLYF1h-31" target="JEoIlfaAiZ4bA9MLYF1h-29">
          <mxGeometry relative="1" as="geometry" />
        </mxCell>
        <mxCell id="JEoIlfaAiZ4bA9MLYF1h-31" value="" style="rounded=0;whiteSpace=wrap;html=1;" vertex="1" parent="1">
          <mxGeometry x="341" y="540" width="40" height="40" as="geometry" />
        </mxCell>
        <mxCell id="JEoIlfaAiZ4bA9MLYF1h-36" style="edgeStyle=orthogonalEdgeStyle;rounded=0;orthogonalLoop=1;jettySize=auto;html=1;entryX=0.5;entryY=1;entryDx=0;entryDy=0;" edge="1" parent="1" source="JEoIlfaAiZ4bA9MLYF1h-37" target="JEoIlfaAiZ4bA9MLYF1h-40">
          <mxGeometry relative="1" as="geometry">
            <mxPoint x="357" y="580" as="targetPoint" />
          </mxGeometry>
        </mxCell>
        <mxCell id="JEoIlfaAiZ4bA9MLYF1h-37" value="" style="rounded=0;whiteSpace=wrap;html=1;" vertex="1" parent="1">
          <mxGeometry x="341" y="600" width="40" height="40" as="geometry" />
        </mxCell>
        <mxCell id="JEoIlfaAiZ4bA9MLYF1h-38" value="" style="endArrow=classic;html=1;rounded=0;entryX=1;entryY=0.5;entryDx=0;entryDy=0;" edge="1" parent="1" target="JEoIlfaAiZ4bA9MLYF1h-37">
          <mxGeometry width="50" height="50" relative="1" as="geometry">
            <mxPoint x="483" y="560" as="sourcePoint" />
            <mxPoint x="690" y="510" as="targetPoint" />
            <Array as="points">
              <mxPoint x="483" y="620" />
            </Array>
          </mxGeometry>
        </mxCell>
        <mxCell id="JEoIlfaAiZ4bA9MLYF1h-39" value="" style="edgeStyle=orthogonalEdgeStyle;rounded=0;orthogonalLoop=1;jettySize=auto;html=1;entryX=0;entryY=0.5;entryDx=0;entryDy=0;" edge="1" parent="1" source="JEoIlfaAiZ4bA9MLYF1h-40" target="JEoIlfaAiZ4bA9MLYF1h-31">
          <mxGeometry relative="1" as="geometry">
            <mxPoint x="340.0000000000073" y="560" as="targetPoint" />
          </mxGeometry>
        </mxCell>
        <mxCell id="JEoIlfaAiZ4bA9MLYF1h-40" value="" style="ellipse;whiteSpace=wrap;html=1;" vertex="1" parent="1">
          <mxGeometry x="271" y="540" width="40" height="40" as="geometry" />
        </mxCell>
        <mxCell id="JEoIlfaAiZ4bA9MLYF1h-43" value="" style="edgeStyle=orthogonalEdgeStyle;rounded=0;orthogonalLoop=1;jettySize=auto;html=1;exitX=1;exitY=0.5;exitDx=0;exitDy=0;entryX=0;entryY=0.5;entryDx=0;entryDy=0;" edge="1" parent="1" source="JEoIlfaAiZ4bA9MLYF1h-44">
          <mxGeometry x="-0.2" y="10" relative="1" as="geometry">
            <mxPoint as="offset" />
            <mxPoint x="240" y="695" as="targetPoint" />
          </mxGeometry>
        </mxCell>
        <mxCell id="JEoIlfaAiZ4bA9MLYF1h-44" value="" style="rounded=0;whiteSpace=wrap;html=1;" vertex="1" parent="1">
          <mxGeometry x="160" y="675" width="40" height="40" as="geometry" />
        </mxCell>
        <mxCell id="JEoIlfaAiZ4bA9MLYF1h-45" value="" style="edgeStyle=orthogonalEdgeStyle;rounded=0;orthogonalLoop=1;jettySize=auto;html=1;entryX=0;entryY=0.5;entryDx=0;entryDy=0;" edge="1" parent="1" source="JEoIlfaAiZ4bA9MLYF1h-46" target="JEoIlfaAiZ4bA9MLYF1h-51">
          <mxGeometry relative="1" as="geometry">
            <mxPoint x="311" y="695" as="targetPoint" />
          </mxGeometry>
        </mxCell>
        <mxCell id="JEoIlfaAiZ4bA9MLYF1h-46" value="" style="rounded=0;whiteSpace=wrap;html=1;" vertex="1" parent="1">
          <mxGeometry x="239" y="675" width="40" height="40" as="geometry" />
        </mxCell>
        <mxCell id="JEoIlfaAiZ4bA9MLYF1h-47" style="edgeStyle=orthogonalEdgeStyle;rounded=0;orthogonalLoop=1;jettySize=auto;html=1;exitX=1;exitY=0.5;exitDx=0;exitDy=0;entryX=0;entryY=0.5;entryDx=0;entryDy=0;" edge="1" parent="1" target="JEoIlfaAiZ4bA9MLYF1h-44">
          <mxGeometry relative="1" as="geometry">
            <mxPoint x="120" y="695" as="sourcePoint" />
          </mxGeometry>
        </mxCell>
        <mxCell id="JEoIlfaAiZ4bA9MLYF1h-50" value="" style="edgeStyle=orthogonalEdgeStyle;rounded=0;orthogonalLoop=1;jettySize=auto;html=1;" edge="1" parent="1" source="JEoIlfaAiZ4bA9MLYF1h-51">
          <mxGeometry relative="1" as="geometry">
            <mxPoint x="386.5" y="695" as="targetPoint" />
          </mxGeometry>
        </mxCell>
        <mxCell id="JEoIlfaAiZ4bA9MLYF1h-51" value="" style="rounded=0;whiteSpace=wrap;html=1;" vertex="1" parent="1">
          <mxGeometry x="316.5" y="675" width="40" height="40" as="geometry" />
        </mxCell>
        <mxCell id="JEoIlfaAiZ4bA9MLYF1h-57" value="" style="edgeStyle=orthogonalEdgeStyle;rounded=0;orthogonalLoop=1;jettySize=auto;html=1;exitX=1;exitY=0.5;exitDx=0;exitDy=0;entryX=0;entryY=0.5;entryDx=0;entryDy=0;" edge="1" parent="1" source="JEoIlfaAiZ4bA9MLYF1h-58">
          <mxGeometry x="-0.2" y="10" relative="1" as="geometry">
            <mxPoint as="offset" />
            <mxPoint x="325" y="793" as="targetPoint" />
          </mxGeometry>
        </mxCell>
        <mxCell id="JEoIlfaAiZ4bA9MLYF1h-58" value="" style="rounded=0;whiteSpace=wrap;html=1;" vertex="1" parent="1">
          <mxGeometry x="245" y="773" width="40" height="40" as="geometry" />
        </mxCell>
        <mxCell id="JEoIlfaAiZ4bA9MLYF1h-59" style="edgeStyle=orthogonalEdgeStyle;rounded=0;orthogonalLoop=1;jettySize=auto;html=1;exitX=1;exitY=0.5;exitDx=0;exitDy=0;entryX=0;entryY=0.5;entryDx=0;entryDy=0;" edge="1" parent="1" target="JEoIlfaAiZ4bA9MLYF1h-58">
          <mxGeometry relative="1" as="geometry">
            <mxPoint x="205" y="793" as="sourcePoint" />
          </mxGeometry>
        </mxCell>
      </root>
    </mxGraphModel>
  </diagram>
</mxfile>
